PathFileType  4	(X/Y/Z) C:\Users\hpl\Documents\MyRepositories\mocap-processing\Data\treadmill\running\
DataRate	CameraRate	NumFrames	NumMarkers	Units	OrigDataRate	OrigDataStartFrame	OrigNumFrames
  200.0		  200.0		    6		     46		 mm	  200.0	      687	    785
Frame#	Time	r_knee			r_shank_antsup			r_ankle			r_calc			r_5meta			r_toe			L_knee			L_shank_antsup			L_ankle			L_calc			L_5meta			L_toe			r_sh2			r_sh3			r_sh4			L_sh2			L_sh3			r_thigh1			r_thigh2			r_thigh3			r_thigh4			r_thigh5			L_thigh1			L_thigh2			L_thigh3			L_thigh4			r.ASIS			r.PSIS			L.ASIS			L.PSIS			C7			R_Shoulder			L_Shoulder			Sternum			R_humerus			R_elbow_med			R_elbow_lat			R_forearm			R_wrist_radius			R_wrist_ulna			L_humerus			L_elbow_med			L_elbow_lat			L_forearm			L_wrist_radius			L_wrist_ulna			
		X1	Y1	Z1	X2	Y2	Z2	X3	Y3	Z3	X4	Y4	Z4	X5	Y5	Z5	X6	Y6	Z6	X7	Y7	Z7	X8	Y8	Z8	X9	Y9	Z9	X10	Y10	Z10	X11	Y11	Z11	X12	Y12	Z12	X13	Y13	Z13	X14	Y14	Z14	X15	Y15	Z15	X16	Y16	Z16	X17	Y17	Z17	X18	Y18	Z18	X19	Y19	Z19	X20	Y20	Z20	X21	Y21	Z21	X22	Y22	Z22	X23	Y23	Z23	X24	Y24	Z24	X25	Y25	Z25	X26	Y26	Z26	X27	Y27	Z27	X28	Y28	Z28	X29	Y29	Z29	X30	Y30	Z30	X31	Y31	Z31	X32	Y32	Z32	X33	Y33	Z33	X34	Y34	Z34	X35	Y35	Z35	X36	Y36	Z36	X37	Y37	Z37	X38	Y38	Z38	X39	Y39	Z39	X40	Y40	Z40	X41	Y41	Z41	X42	Y42	Z42	X43	Y43	Z43	X44	Y44	Z44	X45	Y45	Z45	X46	Y46	Z46	

687	3.43000	692.776	569.419	-151.971	595.502	486.776	-143.006	280.157	395.614	-175.018	257.885	463.486	-245.148	191.935	278.275	-155.612	228.312	232.460	-204.277	1034.014	557.742	-446.515	1092.817	456.802	-452.308	1168.303	146.260	-398.997	1135.609	117.830	-330.023	1327.944	113.579	-443.249	1365.622	161.814	-394.077	483.383	446.018	-152.944	567.599	553.190	-123.020	458.467	523.704	-146.364	1005.795	435.142	-441.901	1048.529	324.225	-421.332	875.516	729.529	-138.290	817.853	630.155	-157.821	767.517	620.077	-137.901	776.679	771.570	-98.264	724.022	670.606	-130.317	1038.778	790.451	-462.684	1074.269	657.471	-437.670	925.780	760.126	-485.901	966.381	630.324	-445.358	959.845	1019.282	-160.072	753.910	1097.718	-213.673	936.061	1044.114	-420.296	743.466	1096.736	-321.339	823.724	1574.979	-272.566	896.313	1555.497	-99.715	825.487	1564.006	-451.161	973.492	1490.768	-310.982	883.126	1350.202	11.959	754.431	1230.855	-4.917	786.425	1267.454	75.097	938.682	1270.882	-12.999	1027.449	1265.855	-81.281	1035.687	1223.904	-52.783	669.132	1408.616	-549.277	543.203	1332.441	-472.610	562.177	1380.185	-556.274	690.659	1281.361	-566.806	798.188	1247.873	-521.946	760.282	1195.008	-556.031
688	3.43500	699.545	565.286	-152.479	600.428	486.452	-143.008	281.289	407.972	-175.169	261.970	476.907	-245.224	187.845	295.432	-155.315	222.666	246.873	-207.405	1032.052	555.776	-446.079	1090.031	455.131	-452.136	1168.261	144.989	-398.213	1135.795	117.245	-328.916	1328.247	111.526	-441.718	1365.606	160.915	-393.574	486.630	449.893	-152.961	574.659	554.013	-124.446	464.690	528.662	-148.199	1003.426	432.839	-439.910	1048.493	321.812	-419.799	879.662	727.597	-138.000	823.828	627.205	-157.292	773.432	616.870	-138.101	780.044	768.177	-98.762	729.320	666.305	-130.289	1034.342	785.242	-462.410	1067.856	652.104	-438.281	921.985	756.621	-487.869	962.267	628.024	-443.394	960.182	1018.652	-160.708	753.617	1096.215	-213.609	934.467	1042.910	-420.327	742.248	1095.068	-321.244	824.418	1573.661	-273.852	896.634	1554.461	-100.541	827.292	1562.006	-452.436	974.096	1488.946	-311.429	881.902	1350.222	12.405	751.808	1231.438	-5.637	783.908	1267.926	74.626	936.641	1269.226	-12.634	1026.016	1263.098	-80.789	1033.432	1221.105	-51.743	671.011	1406.067	-550.731	545.368	1328.857	-474.212	564.307	1377.084	-557.620	693.112	1278.496	-568.271	800.503	1244.836	-523.389	762.613	1192.110	-557.693
689	3.44000	706.984	560.877	-152.920	606.098	485.924	-143.290	283.969	419.804	-174.956	267.877	489.592	-245.272	185.796	311.515	-156.229	219.063	261.514	-207.647	1030.471	554.927	-445.871	1086.750	452.664	-453.184	1166.238	143.097	-397.358	1133.710	115.818	-328.165	1326.827	108.678	-439.788	1363.772	158.489	-391.864	490.852	453.465	-153.485	582.856	554.884	-125.963	472.146	533.020	-149.330	1000.878	430.903	-437.676	1047.742	319.591	-418.395	883.757	725.276	-137.958	829.928	624.048	-156.565	779.501	613.276	-138.175	783.662	764.612	-97.787	734.547	661.595	-130.726	1029.800	781.001	-462.429	1063.123	647.956	-439.064	917.882	753.602	-490.649	959.096	626.873	-442.219	960.376	1017.763	-161.387	753.300	1094.377	-213.756	933.225	1041.449	-420.493	740.285	1093.430	-321.657	825.080	1572.331	-275.131	896.830	1553.174	-101.382	828.687	1559.876	-453.652	974.738	1486.798	-311.781	880.575	1349.991	12.747	748.923	1231.891	-6.264	781.252	1268.237	74.205	934.371	1266.945	-12.242	1024.356	1259.523	-80.006	1030.868	1217.458	-50.515	673.198	1402.997	-552.315	547.877	1325.036	-475.960	566.671	1373.365	-559.246	695.684	1275.052	-569.857	803.357	1241.411	-525.032	765.429	1188.909	-559.411
690	3.44500	714.993	555.976	-153.439	612.685	485.017	-143.591	287.970	431.257	-174.922	275.178	501.709	-245.214	185.214	326.934	-156.435	216.920	276.017	-208.525	1029.210	554.444	-445.603	1083.378	449.891	-452.941	1162.719	140.440	-396.508	1129.635	113.584	-327.654	1323.556	104.845	-437.465	1360.487	154.686	-389.489	496.240	456.798	-153.775	591.778	555.087	-127.416	480.223	536.910	-150.123	996.571	429.074	-437.077	1046.268	317.525	-417.138	887.936	722.942	-137.693	836.393	620.669	-156.118	786.052	609.165	-136.922	786.619	760.345	-99.043	740.024	656.441	-130.627	1025.341	777.904	-462.701	1060.899	645.908	-439.153	913.960	750.586	-493.699	957.192	625.811	-441.486	960.436	1016.608	-161.896	752.562	1092.283	-212.486	931.686	1039.642	-420.606	738.992	1090.930	-321.364	825.793	1570.547	-276.499	896.969	1551.623	-102.302	830.062	1557.112	-455.343	975.269	1484.338	-312.197	878.818	1349.436	12.972	746.373	1231.877	-7.319	778.065	1268.273	73.407	931.939	1264.190	-11.786	1022.529	1255.139	-79.118	1027.924	1213.157	-49.040	675.479	1399.258	-553.918	550.322	1320.641	-477.954	569.172	1369.129	-561.274	698.533	1270.980	-571.720	806.310	1237.501	-526.573	768.417	1184.961	-561.214
691	3.45000	723.390	550.689	-154.075	619.029	484.161	-145.922	293.249	442.072	-174.927	283.944	513.121	-244.962	186.032	342.365	-157.124	216.149	291.143	-208.114	1028.240	553.717	-445.268	1080.026	446.964	-452.395	1157.723	137.353	-395.466	1123.850	110.844	-326.860	1318.753	100.049	-434.810	1355.485	149.154	-387.070	501.826	459.254	-153.214	601.497	554.864	-128.766	489.002	540.385	-150.822	994.075	426.573	-434.760	1044.066	315.579	-416.043	892.173	720.216	-137.383	843.200	617.726	-156.194	792.893	604.753	-136.318	790.089	755.754	-98.846	746.007	650.724	-130.279	1020.762	776.747	-462.609	1058.657	646.013	-437.898	910.478	747.813	-497.166	955.515	625.604	-441.875	960.267	1015.190	-162.456	751.918	1089.672	-212.725	928.748	1037.038	-420.472	737.728	1087.983	-321.133	826.503	1568.761	-277.835	897.143	1549.871	-103.181	831.634	1554.135	-457.062	975.872	1481.583	-312.516	876.601	1348.712	13.034	743.110	1231.874	-8.370	774.693	1268.256	72.264	929.297	1260.968	-11.240	1020.102	1249.464	-77.413	1024.943	1208.081	-47.368	678.036	1395.024	-555.685	553.099	1315.729	-480.041	571.987	1364.256	-563.416	701.650	1266.464	-573.572	809.497	1233.085	-528.455	771.734	1180.611	-563.114
692	3.45500	732.421	545.053	-152.634	626.629	482.707	-146.084	299.765	452.185	-174.643	293.958	524.043	-244.232	188.234	357.248	-157.818	216.022	305.131	-208.964	1027.099	552.592	-445.080	1077.358	444.024	-450.367	1151.131	133.511	-394.157	1116.153	107.561	-326.096	1312.153	93.982	-431.766	1349.118	142.940	-383.132	508.584	461.838	-153.365	611.626	553.835	-129.753	498.679	543.317	-151.137	991.265	424.201	-434.114	1041.147	313.742	-415.108	896.592	717.485	-137.358	850.359	614.167	-155.752	800.351	600.005	-135.656	793.854	750.913	-98.386	752.339	644.715	-129.760	1015.947	778.069	-462.111	1057.185	648.475	-437.402	908.267	746.031	-499.016	955.552	626.070	-442.284	959.960	1013.668	-162.857	751.150	1087.008	-212.496	927.404	1034.971	-420.638	736.137	1085.454	-320.589	827.243	1566.735	-278.901	897.201	1547.758	-104.127	833.042	1550.790	-458.786	976.456	1478.686	-312.765	874.089	1347.606	12.960	739.833	1231.598	-9.694	770.915	1267.881	70.992	926.727	1257.483	-10.439	1017.633	1243.857	-75.747	1021.484	1202.556	-45.413	680.741	1390.213	-557.435	555.998	1310.270	-482.380	574.956	1358.933	-565.782	705.148	1261.294	-575.594	812.858	1228.214	-530.162	775.123	1175.811	-565.054
